<svg class="rich-terminal" viewBox="0 0 1482 1026.0" xmlns="http://www.w3.org/2000/svg">
    <!-- Generated with Rich https://www.textualize.io -->
    <style>

    @font-face {
        font-family: "Fira Code";
        src: local("FiraCode-Regular"),
                url("https://cdnjs.cloudflare.com/ajax/libs/firacode/6.2.0/woff2/FiraCode-Regular.woff2") format("woff2"),
                url("https://cdnjs.cloudflare.com/ajax/libs/firacode/6.2.0/woff/FiraCode-Regular.woff") format("woff");
        font-style: normal;
        font-weight: 400;
    }
    @font-face {
        font-family: "Fira Code";
        src: local("FiraCode-Bold"),
                url("https://cdnjs.cloudflare.com/ajax/libs/firacode/6.2.0/woff2/FiraCode-Bold.woff2") format("woff2"),
                url("https://cdnjs.cloudflare.com/ajax/libs/firacode/6.2.0/woff/FiraCode-Bold.woff") format("woff");
        font-style: bold;
        font-weight: 700;
    }

    .terminal-matrix {
        font-family: Fira Code, monospace;
        font-size: 20px;
        line-height: 24.4px;
        font-variant-east-asian: full-width;
    }

    .terminal-title {
        font-size: 18px;
        font-weight: bold;
        font-family: arial;
    }

    .terminal-r1 { fill: #c5c8c6 }
.terminal-r2 { fill: #cad3f5 }
.terminal-r3 { fill: #24273a }
.terminal-r4 { fill: #f7e1be }
.terminal-r5 { fill: #f7e1be;font-weight: bold }
.terminal-r6 { fill: #f7eebe }
.terminal-r7 { fill: #f7eebe;font-weight: bold }
.terminal-r8 { fill: #454141 }
.terminal-r9 { fill: #cad3f5;font-weight: bold }
.terminal-r10 { fill: #e1f8fa }
.terminal-r11 { fill: #e1f8fa;font-weight: bold }
.terminal-r12 { fill: #969595 }
.terminal-r13 { fill: #bee4f7 }
.terminal-r14 { fill: #bee4f7;font-weight: bold }
.terminal-r15 { fill: #d0d0d8;font-weight: bold }
.terminal-r16 { fill: #ffffff }
.terminal-r17 { fill: #9aa0ad;font-style: italic; }
.terminal-r18 { fill: #ebfaaa }
.terminal-r19 { fill: #ebfaaa;font-weight: bold }
.terminal-r20 { fill: #bfb53b }
.terminal-r21 { fill: #1e2030 }
.terminal-r22 { fill: #777d97 }
.terminal-r23 { fill: #555a72 }
.terminal-r24 { fill: #c6a0f6 }
.terminal-r25 { fill: #f5bde6;font-weight: bold }
.terminal-r26 { fill: #626781 }
    </style>

    <defs>
    <clipPath id="terminal-clip-terminal">
      <rect x="0" y="0" width="1463.0" height="975.0" />
    </clipPath>
    <clipPath id="terminal-line-0">
    <rect x="0" y="1.5" width="1464" height="24.65"/>
            </clipPath>
<clipPath id="terminal-line-1">
    <rect x="0" y="25.9" width="1464" height="24.65"/>
            </clipPath>
<clipPath id="terminal-line-2">
    <rect x="0" y="50.3" width="1464" height="24.65"/>
            </clipPath>
<clipPath id="terminal-line-3">
    <rect x="0" y="74.7" width="1464" height="24.65"/>
            </clipPath>
<clipPath id="terminal-line-4">
    <rect x="0" y="99.1" width="1464" height="24.65"/>
            </clipPath>
<clipPath id="terminal-line-5">
    <rect x="0" y="123.5" width="1464" height="24.65"/>
            </clipPath>
<clipPath id="terminal-line-6">
    <rect x="0" y="147.9" width="1464" height="24.65"/>
            </clipPath>
<clipPath id="terminal-line-7">
    <rect x="0" y="172.3" width="1464" height="24.65"/>
            </clipPath>
<clipPath id="terminal-line-8">
    <rect x="0" y="196.7" width="1464" height="24.65"/>
            </clipPath>
<clipPath id="terminal-line-9">
    <rect x="0" y="221.1" width="1464" height="24.65"/>
            </clipPath>
<clipPath id="terminal-line-10">
    <rect x="0" y="245.5" width="1464" height="24.65"/>
            </clipPath>
<clipPath id="terminal-line-11">
    <rect x="0" y="269.9" width="1464" height="24.65"/>
            </clipPath>
<clipPath id="terminal-line-12">
    <rect x="0" y="294.3" width="1464" height="24.65"/>
            </clipPath>
<clipPath id="terminal-line-13">
    <rect x="0" y="318.7" width="1464" height="24.65"/>
            </clipPath>
<clipPath id="terminal-line-14">
    <rect x="0" y="343.1" width="1464" height="24.65"/>
            </clipPath>
<clipPath id="terminal-line-15">
    <rect x="0" y="367.5" width="1464" height="24.65"/>
            </clipPath>
<clipPath id="terminal-line-16">
    <rect x="0" y="391.9" width="1464" height="24.65"/>
            </clipPath>
<clipPath id="terminal-line-17">
    <rect x="0" y="416.3" width="1464" height="24.65"/>
            </clipPath>
<clipPath id="terminal-line-18">
    <rect x="0" y="440.7" width="1464" height="24.65"/>
            </clipPath>
<clipPath id="terminal-line-19">
    <rect x="0" y="465.1" width="1464" height="24.65"/>
            </clipPath>
<clipPath id="terminal-line-20">
    <rect x="0" y="489.5" width="1464" height="24.65"/>
            </clipPath>
<clipPath id="terminal-line-21">
    <rect x="0" y="513.9" width="1464" height="24.65"/>
            </clipPath>
<clipPath id="terminal-line-22">
    <rect x="0" y="538.3" width="1464" height="24.65"/>
            </clipPath>
<clipPath id="terminal-line-23">
    <rect x="0" y="562.7" width="1464" height="24.65"/>
            </clipPath>
<clipPath id="terminal-line-24">
    <rect x="0" y="587.1" width="1464" height="24.65"/>
            </clipPath>
<clipPath id="terminal-line-25">
    <rect x="0" y="611.5" width="1464" height="24.65"/>
            </clipPath>
<clipPath id="terminal-line-26">
    <rect x="0" y="635.9" width="1464" height="24.65"/>
            </clipPath>
<clipPath id="terminal-line-27">
    <rect x="0" y="660.3" width="1464" height="24.65"/>
            </clipPath>
<clipPath id="terminal-line-28">
    <rect x="0" y="684.7" width="1464" height="24.65"/>
            </clipPath>
<clipPath id="terminal-line-29">
    <rect x="0" y="709.1" width="1464" height="24.65"/>
            </clipPath>
<clipPath id="terminal-line-30">
    <rect x="0" y="733.5" width="1464" height="24.65"/>
            </clipPath>
<clipPath id="terminal-line-31">
    <rect x="0" y="757.9" width="1464" height="24.65"/>
            </clipPath>
<clipPath id="terminal-line-32">
    <rect x="0" y="782.3" width="1464" height="24.65"/>
            </clipPath>
<clipPath id="terminal-line-33">
    <rect x="0" y="806.7" width="1464" height="24.65"/>
            </clipPath>
<clipPath id="terminal-line-34">
    <rect x="0" y="831.1" width="1464" height="24.65"/>
            </clipPath>
<clipPath id="terminal-line-35">
    <rect x="0" y="855.5" width="1464" height="24.65"/>
            </clipPath>
<clipPath id="terminal-line-36">
    <rect x="0" y="879.9" width="1464" height="24.65"/>
            </clipPath>
<clipPath id="terminal-line-37">
    <rect x="0" y="904.3" width="1464" height="24.65"/>
            </clipPath>
<clipPath id="terminal-line-38">
    <rect x="0" y="928.7" width="1464" height="24.65"/>
            </clipPath>
    </defs>

    <rect fill="#292929" stroke="rgba(255,255,255,0.35)" stroke-width="1" x="1" y="1" width="1480" height="1024" rx="8"/><text class="terminal-title" fill="#c5c8c6" text-anchor="middle" x="740" y="27">grasp-agents&#160;·&#160;monitor</text>
            <g transform="translate(26,22)">
            <circle cx="0" cy="0" r="7" fill="#ff5f57"/>
            <circle cx="22" cy="0" r="7" fill="#febc2e"/>
            <circle cx="44" cy="0" r="7" fill="#28c840"/>
            </g>
        
    <g transform="translate(9, 41)" clip-path="url(#terminal-clip-terminal)">
    <rect fill="#494d64" x="0" y="1.5" width="12.2" height="24.65" shape-rendering="crispEdges"/><rect fill="#494d64" x="12.2" y="1.5" width="12.2" height="24.65" shape-rendering="crispEdges"/><rect fill="#494d64" x="24.4" y="1.5" width="61" height="24.65" shape-rendering="crispEdges"/><rect fill="#494d64" x="85.4" y="1.5" width="12.2" height="24.65" shape-rendering="crispEdges"/><rect fill="#494d64" x="97.6" y="1.5" width="488" height="24.65" shape-rendering="crispEdges"/><rect fill="#494d64" x="585.6" y="1.5" width="268.4" height="24.65" shape-rendering="crispEdges"/><rect fill="#494d64" x="854" y="1.5" width="488" height="24.65" shape-rendering="crispEdges"/><rect fill="#494d64" x="1342" y="1.5" width="12.2" height="24.65" shape-rendering="crispEdges"/><rect fill="#494d64" x="1354.2" y="1.5" width="0" height="24.65" shape-rendering="crispEdges"/><rect fill="#494d64" x="1354.2" y="1.5" width="109.8" height="24.65" shape-rendering="crispEdges"/><rect fill="#24273a" x="0" y="25.9" width="1403" height="24.65" shape-rendering="crispEdges"/><rect fill="#5b4d7b" x="1403" y="25.9" width="24.4" height="24.65" shape-rendering="crispEdges"/><rect fill="#24273a" x="1427.4" y="25.9" width="36.6" height="24.65" shape-rendering="crispEdges"/><rect fill="#24273a" x="0" y="50.3" width="36.6" height="24.65" shape-rendering="crispEdges"/><rect fill="#24273a" x="36.6" y="50.3" width="36.6" height="24.65" shape-rendering="crispEdges"/><rect fill="#24273a" x="73.2" y="50.3" width="24.4" height="24.65" shape-rendering="crispEdges"/><rect fill="#24273a" x="97.6" y="50.3" width="12.2" height="24.65" shape-rendering="crispEdges"/><rect fill="#24273a" x="109.8" y="50.3" width="244" height="24.65" shape-rendering="crispEdges"/><rect fill="#24273a" x="353.8" y="50.3" width="12.2" height="24.65" shape-rendering="crispEdges"/><rect fill="#24273a" x="366" y="50.3" width="1012.6" height="24.65" shape-rendering="crispEdges"/><rect fill="#24273a" x="1378.6" y="50.3" width="24.4" height="24.65" shape-rendering="crispEdges"/><rect fill="#5b4d7b" x="1403" y="50.3" width="24.4" height="24.65" shape-rendering="crispEdges"/><rect fill="#24273a" x="1427.4" y="50.3" width="36.6" height="24.65" shape-rendering="crispEdges"/><rect fill="#24273a" x="0" y="74.7" width="36.6" height="24.65" shape-rendering="crispEdges"/><rect fill="#24273a" x="36.6" y="74.7" width="36.6" height="24.65" shape-rendering="crispEdges"/><rect fill="#24273a" x="73.2" y="74.7" width="12.2" height="24.65" shape-rendering="crispEdges"/><rect fill="#24273a" x="85.4" y="74.7" width="1305.4" height="24.65" shape-rendering="crispEdges"/><rect fill="#24273a" x="1390.8" y="74.7" width="12.2" height="24.65" shape-rendering="crispEdges"/><rect fill="#5b4d7b" x="1403" y="74.7" width="24.4" height="24.65" shape-rendering="crispEdges"/><rect fill="#24273a" x="1427.4" y="74.7" width="36.6" height="24.65" shape-rendering="crispEdges"/><rect fill="#24273a" x="0" y="99.1" width="36.6" height="24.65" shape-rendering="crispEdges"/><rect fill="#24273a" x="36.6" y="99.1" width="36.6" height="24.65" shape-rendering="crispEdges"/><rect fill="#24273a" x="73.2" y="99.1" width="12.2" height="24.65" shape-rendering="crispEdges"/><rect fill="#24273a" x="85.4" y="99.1" width="24.4" height="24.65" shape-rendering="crispEdges"/><rect fill="#24273a" x="109.8" y="99.1" width="1256.6" height="24.65" shape-rendering="crispEdges"/><rect fill="#24273a" x="1366.4" y="99.1" width="24.4" height="24.65" shape-rendering="crispEdges"/><rect fill="#24273a" x="1390.8" y="99.1" width="12.2" height="24.65" shape-rendering="crispEdges"/><rect fill="#5b4d7b" x="1403" y="99.1" width="24.4" height="24.65" shape-rendering="crispEdges"/><rect fill="#24273a" x="1427.4" y="99.1" width="36.6" height="24.65" shape-rendering="crispEdges"/><rect fill="#24273a" x="0" y="123.5" width="36.6" height="24.65" shape-rendering="crispEdges"/><rect fill="#24273a" x="36.6" y="123.5" width="36.6" height="24.65" shape-rendering="crispEdges"/><rect fill="#24273a" x="73.2" y="123.5" width="12.2" height="24.65" shape-rendering="crispEdges"/><rect fill="#24273a" x="85.4" y="123.5" width="1305.4" height="24.65" shape-rendering="crispEdges"/><rect fill="#24273a" x="1390.8" y="123.5" width="12.2" height="24.65" shape-rendering="crispEdges"/><rect fill="#5b4d7b" x="1403" y="123.5" width="24.4" height="24.65" shape-rendering="crispEdges"/><rect fill="#24273a" x="1427.4" y="123.5" width="36.6" height="24.65" shape-rendering="crispEdges"/><rect fill="#24273a" x="0" y="147.9" width="36.6" height="24.65" shape-rendering="crispEdges"/><rect fill="#24273a" x="36.6" y="147.9" width="36.6" height="24.65" shape-rendering="crispEdges"/><rect fill="#24273a" x="73.2" y="147.9" width="1329.8" height="24.65" shape-rendering="crispEdges"/><rect fill="#5b4d7b" x="1403" y="147.9" width="24.4" height="24.65" shape-rendering="crispEdges"/><rect fill="#24273a" x="1427.4" y="147.9" width="36.6" height="24.65" shape-rendering="crispEdges"/><rect fill="#24273a" x="0" y="172.3" width="1403" height="24.65" shape-rendering="crispEdges"/><rect fill="#5b4d7b" x="1403" y="172.3" width="24.4" height="24.65" shape-rendering="crispEdges"/><rect fill="#24273a" x="1427.4" y="172.3" width="36.6" height="24.65" shape-rendering="crispEdges"/><rect fill="#24273a" x="0" y="196.7" width="36.6" height="24.65" shape-rendering="crispEdges"/><rect fill="#24273a" x="36.6" y="196.7" width="512.4" height="24.65" shape-rendering="crispEdges"/><rect fill="#24273a" x="549" y="196.7" width="24.4" height="24.65" shape-rendering="crispEdges"/><rect fill="#24273a" x="573.4" y="196.7" width="12.2" height="24.65" shape-rendering="crispEdges"/><rect fill="#24273a" x="585.6" y="196.7" width="219.6" height="24.65" shape-rendering="crispEdges"/><rect fill="#24273a" x="805.2" y="196.7" width="12.2" height="24.65" shape-rendering="crispEdges"/><rect fill="#24273a" x="817.4" y="196.7" width="561.2" height="24.65" shape-rendering="crispEdges"/><rect fill="#24273a" x="1378.6" y="196.7" width="24.4" height="24.65" shape-rendering="crispEdges"/><rect fill="#5b4d7b" x="1403" y="196.7" width="24.4" height="24.65" shape-rendering="crispEdges"/><rect fill="#24273a" x="1427.4" y="196.7" width="36.6" height="24.65" shape-rendering="crispEdges"/><rect fill="#24273a" x="0" y="221.1" width="36.6" height="24.65" shape-rendering="crispEdges"/><rect fill="#24273a" x="36.6" y="221.1" width="512.4" height="24.65" shape-rendering="crispEdges"/><rect fill="#24273a" x="549" y="221.1" width="12.2" height="24.65" shape-rendering="crispEdges"/><rect fill="#24273a" x="561.2" y="221.1" width="829.6" height="24.65" shape-rendering="crispEdges"/><rect fill="#24273a" x="1390.8" y="221.1" width="12.2" height="24.65" shape-rendering="crispEdges"/><rect fill="#5b4d7b" x="1403" y="221.1" width="24.4" height="24.65" shape-rendering="crispEdges"/><rect fill="#24273a" x="1427.4" y="221.1" width="36.6" height="24.65" shape-rendering="crispEdges"/><rect fill="#24273a" x="0" y="245.5" width="36.6" height="24.65" shape-rendering="crispEdges"/><rect fill="#24273a" x="36.6" y="245.5" width="512.4" height="24.65" shape-rendering="crispEdges"/><rect fill="#24273a" x="549" y="245.5" width="12.2" height="24.65" shape-rendering="crispEdges"/><rect fill="#24273a" x="561.2" y="245.5" width="24.4" height="24.65" shape-rendering="crispEdges"/><rect fill="#24273a" x="585.6" y="245.5" width="780.8" height="24.65" shape-rendering="crispEdges"/><rect fill="#24273a" x="1366.4" y="245.5" width="24.4" height="24.65" shape-rendering="crispEdges"/><rect fill="#24273a" x="1390.8" y="245.5" width="12.2" height="24.65" shape-rendering="crispEdges"/><rect fill="#5b4d7b" x="1403" y="245.5" width="24.4" height="24.65" shape-rendering="crispEdges"/><rect fill="#24273a" x="1427.4" y="245.5" width="36.6" height="24.65" shape-rendering="crispEdges"/><rect fill="#24273a" x="0" y="269.9" width="36.6" height="24.65" shape-rendering="crispEdges"/><rect fill="#24273a" x="36.6" y="269.9" width="512.4" height="24.65" shape-rendering="crispEdges"/><rect fill="#24273a" x="549" y="269.9" width="12.2" height="24.65" shape-rendering="crispEdges"/><rect fill="#24273a" x="561.2" y="269.9" width="829.6" height="24.65" shape-rendering="crispEdges"/><rect fill="#24273a" x="1390.8" y="269.9" width="12.2" height="24.65" shape-rendering="crispEdges"/><rect fill="#5b4d7b" x="1403" y="269.9" width="24.4" height="24.65" shape-rendering="crispEdges"/><rect fill="#24273a" x="1427.4" y="269.9" width="36.6" height="24.65" shape-rendering="crispEdges"/><rect fill="#24273a" x="0" y="294.3" width="36.6" height="24.65" shape-rendering="crispEdges"/><rect fill="#24273a" x="36.6" y="294.3" width="512.4" height="24.65" shape-rendering="crispEdges"/><rect fill="#24273a" x="549" y="294.3" width="854" height="24.65" shape-rendering="crispEdges"/><rect fill="#5b4d7b" x="1403" y="294.3" width="24.4" height="24.65" shape-rendering="crispEdges"/><rect fill="#24273a" x="1427.4" y="294.3" width="36.6" height="24.65" shape-rendering="crispEdges"/><rect fill="#24273a" x="0" y="318.7" width="1403" height="24.65" shape-rendering="crispEdges"/><rect fill="#5b4d7b" x="1403" y="318.7" width="24.4" height="24.65" shape-rendering="crispEdges"/><rect fill="#24273a" x="1427.4" y="318.7" width="36.6" height="24.65" shape-rendering="crispEdges"/><rect fill="#24273a" x="0" y="343.1" width="36.6" height="24.65" shape-rendering="crispEdges"/><rect fill="#24273a" x="36.6" y="343.1" width="561.2" height="24.65" shape-rendering="crispEdges"/><rect fill="#24273a" x="597.8" y="343.1" width="134.2" height="24.65" shape-rendering="crispEdges"/><rect fill="#24273a" x="732" y="343.1" width="109.8" height="24.65" shape-rendering="crispEdges"/><rect fill="#24273a" x="841.8" y="343.1" width="561.2" height="24.65" shape-rendering="crispEdges"/><rect fill="#5b4d7b" x="1403" y="343.1" width="24.4" height="24.65" shape-rendering="crispEdges"/><rect fill="#24273a" x="1427.4" y="343.1" width="36.6" height="24.65" shape-rendering="crispEdges"/><rect fill="#24273a" x="0" y="367.5" width="1403" height="24.65" shape-rendering="crispEdges"/><rect fill="#5b4d7b" x="1403" y="367.5" width="24.4" height="24.65" shape-rendering="crispEdges"/><rect fill="#24273a" x="1427.4" y="367.5" width="36.6" height="24.65" shape-rendering="crispEdges"/><rect fill="#24273a" x="0" y="391.9" width="36.6" height="24.65" shape-rendering="crispEdges"/><rect fill="#24273a" x="36.6" y="391.9" width="48.8" height="24.65" shape-rendering="crispEdges"/><rect fill="#24273a" x="85.4" y="391.9" width="97.6" height="24.65" shape-rendering="crispEdges"/><rect fill="#24273a" x="183" y="391.9" width="1220" height="24.65" shape-rendering="crispEdges"/><rect fill="#5b4d7b" x="1403" y="391.9" width="24.4" height="24.65" shape-rendering="crispEdges"/><rect fill="#24273a" x="1427.4" y="391.9" width="36.6" height="24.65" shape-rendering="crispEdges"/><rect fill="#24273a" x="0" y="416.3" width="36.6" height="24.65" shape-rendering="crispEdges"/><rect fill="#24273a" x="36.6" y="416.3" width="48.8" height="24.65" shape-rendering="crispEdges"/><rect fill="#24273a" x="85.4" y="416.3" width="1317.6" height="24.65" shape-rendering="crispEdges"/><rect fill="#5b4d7b" x="1403" y="416.3" width="24.4" height="24.65" shape-rendering="crispEdges"/><rect fill="#24273a" x="1427.4" y="416.3" width="36.6" height="24.65" shape-rendering="crispEdges"/><rect fill="#24273a" x="0" y="440.7" width="36.6" height="24.65" shape-rendering="crispEdges"/><rect fill="#24273a" x="36.6" y="440.7" width="48.8" height="24.65" shape-rendering="crispEdges"/><rect fill="#24273a" x="85.4" y="440.7" width="524.6" height="24.65" shape-rendering="crispEdges"/><rect fill="#24273a" x="610" y="440.7" width="793" height="24.65" shape-rendering="crispEdges"/><rect fill="#5b4d7b" x="1403" y="440.7" width="24.4" height="24.65" shape-rendering="crispEdges"/><rect fill="#24273a" x="1427.4" y="440.7" width="36.6" height="24.65" shape-rendering="crispEdges"/><rect fill="#24273a" x="0" y="465.1" width="36.6" height="24.65" shape-rendering="crispEdges"/><rect fill="#24273a" x="36.6" y="465.1" width="36.6" height="24.65" shape-rendering="crispEdges"/><rect fill="#24273a" x="73.2" y="465.1" width="1329.8" height="24.65" shape-rendering="crispEdges"/><rect fill="#5b4d7b" x="1403" y="465.1" width="24.4" height="24.65" shape-rendering="crispEdges"/><rect fill="#24273a" x="1427.4" y="465.1" width="36.6" height="24.65" shape-rendering="crispEdges"/><rect fill="#24273a" x="0" y="489.5" width="1403" height="24.65" shape-rendering="crispEdges"/><rect fill="#5b4d7b" x="1403" y="489.5" width="24.4" height="24.65" shape-rendering="crispEdges"/><rect fill="#24273a" x="1427.4" y="489.5" width="36.6" height="24.65" shape-rendering="crispEdges"/><rect fill="#24273a" x="0" y="513.9" width="36.6" height="24.65" shape-rendering="crispEdges"/><rect fill="#24273a" x="36.6" y="513.9" width="1366.4" height="24.65" shape-rendering="crispEdges"/><rect fill="#5b4d7b" x="1403" y="513.9" width="24.4" height="24.65" shape-rendering="crispEdges"/><rect fill="#24273a" x="1427.4" y="513.9" width="36.6" height="24.65" shape-rendering="crispEdges"/><rect fill="#24273a" x="0" y="538.3" width="1403" height="24.65" shape-rendering="crispEdges"/><rect fill="#141729" x="1403" y="538.3" width="24.4" height="24.65" shape-rendering="crispEdges"/><rect fill="#24273a" x="1427.4" y="538.3" width="36.6" height="24.65" shape-rendering="crispEdges"/><rect fill="#24273a" x="0" y="562.7" width="36.6" height="24.65" shape-rendering="crispEdges"/><rect fill="#24273a" x="36.6" y="562.7" width="24.4" height="24.65" shape-rendering="crispEdges"/><rect fill="#24273a" x="61" y="562.7" width="12.2" height="24.65" shape-rendering="crispEdges"/><rect fill="#24273a" x="73.2" y="562.7" width="292.8" height="24.65" shape-rendering="crispEdges"/><rect fill="#24273a" x="366" y="562.7" width="12.2" height="24.65" shape-rendering="crispEdges"/><rect fill="#24273a" x="378.2" y="562.7" width="24.4" height="24.65" shape-rendering="crispEdges"/><rect fill="#24273a" x="402.6" y="562.7" width="1000.4" height="24.65" shape-rendering="crispEdges"/><rect fill="#141729" x="1403" y="562.7" width="24.4" height="24.65" shape-rendering="crispEdges"/><rect fill="#24273a" x="1427.4" y="562.7" width="36.6" height="24.65" shape-rendering="crispEdges"/><rect fill="#24273a" x="0" y="587.1" width="36.6" height="24.65" shape-rendering="crispEdges"/><rect fill="#24273a" x="36.6" y="587.1" width="12.2" height="24.65" shape-rendering="crispEdges"/><rect fill="#24273a" x="48.8" y="587.1" width="341.6" height="24.65" shape-rendering="crispEdges"/><rect fill="#24273a" x="390.4" y="587.1" width="12.2" height="24.65" shape-rendering="crispEdges"/><rect fill="#24273a" x="402.6" y="587.1" width="1000.4" height="24.65" shape-rendering="crispEdges"/><rect fill="#141729" x="1403" y="587.1" width="24.4" height="24.65" shape-rendering="crispEdges"/><rect fill="#24273a" x="1427.4" y="587.1" width="36.6" height="24.65" shape-rendering="crispEdges"/><rect fill="#24273a" x="0" y="611.5" width="36.6" height="24.65" shape-rendering="crispEdges"/><rect fill="#24273a" x="36.6" y="611.5" width="12.2" height="24.65" shape-rendering="crispEdges"/><rect fill="#24273a" x="48.8" y="611.5" width="24.4" height="24.65" shape-rendering="crispEdges"/><rect fill="#24273a" x="73.2" y="611.5" width="61" height="24.65" shape-rendering="crispEdges"/><rect fill="#24273a" x="134.2" y="611.5" width="24.4" height="24.65" shape-rendering="crispEdges"/><rect fill="#24273a" x="158.6" y="611.5" width="12.2" height="24.65" shape-rendering="crispEdges"/><rect fill="#24273a" x="170.8" y="611.5" width="195.2" height="24.65" shape-rendering="crispEdges"/><rect fill="#24273a" x="366" y="611.5" width="24.4" height="24.65" shape-rendering="crispEdges"/><rect fill="#24273a" x="390.4" y="611.5" width="12.2" height="24.65" shape-rendering="crispEdges"/><rect fill="#24273a" x="402.6" y="611.5" width="1000.4" height="24.65" shape-rendering="crispEdges"/><rect fill="#141729" x="1403" y="611.5" width="24.4" height="24.65" shape-rendering="crispEdges"/><rect fill="#24273a" x="1427.4" y="611.5" width="36.6" height="24.65" shape-rendering="crispEdges"/><rect fill="#24273a" x="0" y="635.9" width="36.6" height="24.65" shape-rendering="crispEdges"/><rect fill="#24273a" x="36.6" y="635.9" width="12.2" height="24.65" shape-rendering="crispEdges"/><rect fill="#24273a" x="48.8" y="635.9" width="341.6" height="24.65" shape-rendering="crispEdges"/><rect fill="#24273a" x="390.4" y="635.9" width="12.2" height="24.65" shape-rendering="crispEdges"/><rect fill="#24273a" x="402.6" y="635.9" width="1000.4" height="24.65" shape-rendering="crispEdges"/><rect fill="#141729" x="1403" y="635.9" width="24.4" height="24.65" shape-rendering="crispEdges"/><rect fill="#24273a" x="1427.4" y="635.9" width="36.6" height="24.65" shape-rendering="crispEdges"/><rect fill="#24273a" x="0" y="660.3" width="36.6" height="24.65" shape-rendering="crispEdges"/><rect fill="#24273a" x="36.6" y="660.3" width="366" height="24.65" shape-rendering="crispEdges"/><rect fill="#24273a" x="402.6" y="660.3" width="1000.4" height="24.65" shape-rendering="crispEdges"/><rect fill="#141729" x="1403" y="660.3" width="24.4" height="24.65" shape-rendering="crispEdges"/><rect fill="#24273a" x="1427.4" y="660.3" width="36.6" height="24.65" shape-rendering="crispEdges"/><rect fill="#24273a" x="0" y="684.7" width="36.6" height="24.65" shape-rendering="crispEdges"/><rect fill="#24273a" x="36.6" y="684.7" width="927.2" height="24.65" shape-rendering="crispEdges"/><rect fill="#24273a" x="963.8" y="684.7" width="439.2" height="24.65" shape-rendering="crispEdges"/><rect fill="#141729" x="1403" y="684.7" width="24.4" height="24.65" shape-rendering="crispEdges"/><rect fill="#24273a" x="1427.4" y="684.7" width="36.6" height="24.65" shape-rendering="crispEdges"/><rect fill="#24273a" x="0" y="709.1" width="1403" height="24.65" shape-rendering="crispEdges"/><rect fill="#141729" x="1403" y="709.1" width="24.4" height="24.65" shape-rendering="crispEdges"/><rect fill="#24273a" x="1427.4" y="709.1" width="36.6" height="24.65" shape-rendering="crispEdges"/><rect fill="#24273a" x="0" y="733.5" width="36.6" height="24.65" shape-rendering="crispEdges"/><rect fill="#24273a" x="36.6" y="733.5" width="768.6" height="24.65" shape-rendering="crispEdges"/><rect fill="#24273a" x="805.2" y="733.5" width="24.4" height="24.65" shape-rendering="crispEdges"/><rect fill="#24273a" x="829.6" y="733.5" width="12.2" height="24.65" shape-rendering="crispEdges"/><rect fill="#24273a" x="841.8" y="733.5" width="292.8" height="24.65" shape-rendering="crispEdges"/><rect fill="#24273a" x="1134.6" y="733.5" width="12.2" height="24.65" shape-rendering="crispEdges"/><rect fill="#24273a" x="1146.8" y="733.5" width="231.8" height="24.65" shape-rendering="crispEdges"/><rect fill="#24273a" x="1378.6" y="733.5" width="24.4" height="24.65" shape-rendering="crispEdges"/><rect fill="#141729" x="1403" y="733.5" width="24.4" height="24.65" shape-rendering="crispEdges"/><rect fill="#24273a" x="1427.4" y="733.5" width="36.6" height="24.65" shape-rendering="crispEdges"/><rect fill="#24273a" x="0" y="757.9" width="36.6" height="24.65" shape-rendering="crispEdges"/><rect fill="#24273a" x="36.6" y="757.9" width="768.6" height="24.65" shape-rendering="crispEdges"/><rect fill="#24273a" x="805.2" y="757.9" width="12.2" height="24.65" shape-rendering="crispEdges"/><rect fill="#24273a" x="817.4" y="757.9" width="573.4" height="24.65" shape-rendering="crispEdges"/><rect fill="#24273a" x="1390.8" y="757.9" width="12.2" height="24.65" shape-rendering="crispEdges"/><rect fill="#141729" x="1403" y="757.9" width="24.4" height="24.65" shape-rendering="crispEdges"/><rect fill="#24273a" x="1427.4" y="757.9" width="36.6" height="24.65" shape-rendering="crispEdges"/><rect fill="#24273a" x="0" y="782.3" width="36.6" height="24.65" shape-rendering="crispEdges"/><rect fill="#24273a" x="36.6" y="782.3" width="768.6" height="24.65" shape-rendering="crispEdges"/><rect fill="#24273a" x="805.2" y="782.3" width="12.2" height="24.65" shape-rendering="crispEdges"/><rect fill="#24273a" x="817.4" y="782.3" width="24.4" height="24.65" shape-rendering="crispEdges"/><rect fill="#24273a" x="841.8" y="782.3" width="524.6" height="24.65" shape-rendering="crispEdges"/><rect fill="#24273a" x="1366.4" y="782.3" width="24.4" height="24.65" shape-rendering="crispEdges"/><rect fill="#24273a" x="1390.8" y="782.3" width="12.2" height="24.65" shape-rendering="crispEdges"/><rect fill="#141729" x="1403" y="782.3" width="24.4" height="24.65" shape-rendering="crispEdges"/><rect fill="#24273a" x="1427.4" y="782.3" width="36.6" height="24.65" shape-rendering="crispEdges"/><rect fill="#24273a" x="0" y="806.7" width="36.6" height="24.65" shape-rendering="crispEdges"/><rect fill="#24273a" x="36.6" y="806.7" width="768.6" height="24.65" shape-rendering="crispEdges"/><rect fill="#24273a" x="805.2" y="806.7" width="12.2" height="24.65" shape-rendering="crispEdges"/><rect fill="#24273a" x="817.4" y="806.7" width="573.4" height="24.65" shape-rendering="crispEdges"/><rect fill="#24273a" x="1390.8" y="806.7" width="12.2" height="24.65" shape-rendering="crispEdges"/><rect fill="#141729" x="1403" y="806.7" width="24.4" height="24.65" shape-rendering="crispEdges"/><rect fill="#24273a" x="1427.4" y="806.7" width="36.6" height="24.65" shape-rendering="crispEdges"/><rect fill="#24273a" x="0" y="831.1" width="36.6" height="24.65" shape-rendering="crispEdges"/><rect fill="#24273a" x="36.6" y="831.1" width="768.6" height="24.65" shape-rendering="crispEdges"/><rect fill="#24273a" x="805.2" y="831.1" width="597.8" height="24.65" shape-rendering="crispEdges"/><rect fill="#141729" x="1403" y="831.1" width="24.4" height="24.65" shape-rendering="crispEdges"/><rect fill="#24273a" x="1427.4" y="831.1" width="36.6" height="24.65" shape-rendering="crispEdges"/><rect fill="#24273a" x="0" y="855.5" width="1403" height="24.65" shape-rendering="crispEdges"/><rect fill="#141729" x="1403" y="855.5" width="24.4" height="24.65" shape-rendering="crispEdges"/><rect fill="#24273a" x="1427.4" y="855.5" width="36.6" height="24.65" shape-rendering="crispEdges"/><rect fill="#24273a" x="0" y="879.9" width="36.6" height="24.65" shape-rendering="crispEdges"/><rect fill="#24273a" x="36.6" y="879.9" width="585.6" height="24.65" shape-rendering="crispEdges"/><rect fill="#24273a" x="622.2" y="879.9" width="780.8" height="24.65" shape-rendering="crispEdges"/><rect fill="#141729" x="1403" y="879.9" width="24.4" height="24.65" shape-rendering="crispEdges"/><rect fill="#24273a" x="1427.4" y="879.9" width="36.6" height="24.65" shape-rendering="crispEdges"/><rect fill="#c6a0f6" x="0" y="904.3" width="12.2" height="24.65" shape-rendering="crispEdges"/><rect fill="#c6a0f6" x="12.2" y="904.3" width="158.6" height="24.65" shape-rendering="crispEdges"/><rect fill="#c6a0f6" x="170.8" y="904.3" width="12.2" height="24.65" shape-rendering="crispEdges"/><rect fill="#24273a" x="183" y="904.3" width="12.2" height="24.65" shape-rendering="crispEdges"/><rect fill="#24273a" x="195.2" y="904.3" width="170.8" height="24.65" shape-rendering="crispEdges"/><rect fill="#24273a" x="366" y="904.3" width="24.4" height="24.65" shape-rendering="crispEdges"/><rect fill="#24273a" x="390.4" y="904.3" width="122" height="24.65" shape-rendering="crispEdges"/><rect fill="#24273a" x="512.4" y="904.3" width="951.6" height="24.65" shape-rendering="crispEdges"/><rect fill="#24273a" x="0" y="928.7" width="12.2" height="24.65" shape-rendering="crispEdges"/><rect fill="#24273a" x="12.2" y="928.7" width="158.6" height="24.65" shape-rendering="crispEdges"/><rect fill="#24273a" x="170.8" y="928.7" width="1293.2" height="24.65" shape-rendering="crispEdges"/><rect fill="#494d64" x="0" y="953.1" width="36.6" height="24.65" shape-rendering="crispEdges"/><rect fill="#494d64" x="36.6" y="953.1" width="61" height="24.65" shape-rendering="crispEdges"/><rect fill="#494d64" x="97.6" y="953.1" width="36.6" height="24.65" shape-rendering="crispEdges"/><rect fill="#494d64" x="134.2" y="953.1" width="170.8" height="24.65" shape-rendering="crispEdges"/><rect fill="#494d64" x="305" y="953.1" width="1012.6" height="24.65" shape-rendering="crispEdges"/><rect fill="#494d64" x="1317.6" y="953.1" width="12.2" height="24.65" shape-rendering="crispEdges"/><rect fill="#494d64" x="1329.8" y="953.1" width="24.4" height="24.65" shape-rendering="crispEdges"/><rect fill="#494d64" x="1354.2" y="953.1" width="97.6" height="24.65" shape-rendering="crispEdges"/><rect fill="#494d64" x="1451.8" y="953.1" width="12.2" height="24.65" shape-rendering="crispEdges"/>
    <g class="terminal-matrix">
    <text class="terminal-r2" x="12.2" y="20" textLength="12.2" clip-path="url(#terminal-line-0)">⭘</text><text class="terminal-r2" x="585.6" y="20" textLength="268.4" clip-path="url(#terminal-line-0)">grasp-agents&#160;·&#160;monitor</text><text class="terminal-r1" x="1464" y="20" textLength="12.2" clip-path="url(#terminal-line-0)">
</text><text class="terminal-r1" x="1464" y="44.4" textLength="12.2" clip-path="url(#terminal-line-1)">
</text><text class="terminal-r4" x="73.2" y="68.8" textLength="24.4" clip-path="url(#terminal-line-2)">╭─</text><text class="terminal-r5" x="109.8" y="68.8" textLength="244" clip-path="url(#terminal-line-2)">System&#160;→&#160;coordinator</text><text class="terminal-r4" x="366" y="68.8" textLength="1012.6" clip-path="url(#terminal-line-2)">───────────────────────────────────────────────────────────────────────────────────</text><text class="terminal-r4" x="1378.6" y="68.8" textLength="24.4" clip-path="url(#terminal-line-2)">─╮</text><text class="terminal-r1" x="1464" y="68.8" textLength="12.2" clip-path="url(#terminal-line-2)">
</text><text class="terminal-r4" x="73.2" y="93.2" textLength="12.2" clip-path="url(#terminal-line-3)">│</text><text class="terminal-r4" x="1390.8" y="93.2" textLength="12.2" clip-path="url(#terminal-line-3)">│</text><text class="terminal-r1" x="1464" y="93.2" textLength="12.2" clip-path="url(#terminal-line-3)">
</text><text class="terminal-r4" x="73.2" y="117.6" textLength="12.2" clip-path="url(#terminal-line-4)">│</text><text class="terminal-r2" x="109.8" y="117.6" textLength="1256.6" clip-path="url(#terminal-line-4)">You&#160;are&#160;a&#160;coordinator.&#160;Delegate&#160;research&#160;to&#160;the&#160;researcher&#160;subagent&#160;and&#160;writing&#160;to&#160;the&#160;writer&#160;subagent.</text><text class="terminal-r4" x="1390.8" y="117.6" textLength="12.2" clip-path="url(#terminal-line-4)">│</text><text class="terminal-r1" x="1464" y="117.6" textLength="12.2" clip-path="url(#terminal-line-4)">
</text><text class="terminal-r4" x="73.2" y="142" textLength="12.2" clip-path="url(#terminal-line-5)">│</text><text class="terminal-r4" x="1390.8" y="142" textLength="12.2" clip-path="url(#terminal-line-5)">│</text><text class="terminal-r1" x="1464" y="142" textLength="12.2" clip-path="url(#terminal-line-5)">
</text><text class="terminal-r4" x="73.2" y="166.4" textLength="1329.8" clip-path="url(#terminal-line-6)">╰───────────────────────────────────────────────────────────────────────────────────────────────────────────╯</text><text class="terminal-r1" x="1464" y="166.4" textLength="12.2" clip-path="url(#terminal-line-6)">
</text><text class="terminal-r1" x="1464" y="190.8" textLength="12.2" clip-path="url(#terminal-line-7)">
</text><text class="terminal-r6" x="549" y="215.2" textLength="24.4" clip-path="url(#terminal-line-8)">╭─</text><text class="terminal-r7" x="585.6" y="215.2" textLength="219.6" clip-path="url(#terminal-line-8)">User&#160;→&#160;coordinator</text><text class="terminal-r6" x="817.4" y="215.2" textLength="561.2" clip-path="url(#terminal-line-8)">──────────────────────────────────────────────</text><text class="terminal-r6" x="1378.6" y="215.2" textLength="24.4" clip-path="url(#terminal-line-8)">─╮</text><text class="terminal-r1" x="1464" y="215.2" textLength="12.2" clip-path="url(#terminal-line-8)">
</text><text class="terminal-r6" x="549" y="239.6" textLength="12.2" clip-path="url(#terminal-line-9)">│</text><text class="terminal-r6" x="1390.8" y="239.6" textLength="12.2" clip-path="url(#terminal-line-9)">│</text><text class="terminal-r1" x="1464" y="239.6" textLength="12.2" clip-path="url(#terminal-line-9)">
</text><text class="terminal-r6" x="549" y="264" textLength="12.2" clip-path="url(#terminal-line-10)">│</text><text class="terminal-r2" x="585.6" y="264" textLength="780.8" clip-path="url(#terminal-line-10)">Research&#160;internet&#160;history&#160;and&#160;produce&#160;a&#160;short&#160;illustrated&#160;brief.</text><text class="terminal-r6" x="1390.8" y="264" textLength="12.2" clip-path="url(#terminal-line-10)">│</text><text class="terminal-r1" x="1464" y="264" textLength="12.2" clip-path="url(#terminal-line-10)">
</text><text class="terminal-r6" x="549" y="288.4" textLength="12.2" clip-path="url(#terminal-line-11)">│</text><text class="terminal-r6" x="1390.8" y="288.4" textLength="12.2" clip-path="url(#terminal-line-11)">│</text><text class="terminal-r1" x="1464" y="288.4" textLength="12.2" clip-path="url(#terminal-line-11)">
</text><text class="terminal-r6" x="549" y="312.8" textLength="854" clip-path="url(#terminal-line-12)">╰────────────────────────────────────────────────────────────────────╯</text><text class="terminal-r1" x="1464" y="312.8" textLength="12.2" clip-path="url(#terminal-line-12)">
</text><text class="terminal-r1" x="1464" y="337.2" textLength="12.2" clip-path="url(#terminal-line-13)">
</text><text class="terminal-r8" x="36.6" y="361.6" textLength="561.2" clip-path="url(#terminal-line-14)">─────────────────────────────────────────────&#160;</text><text class="terminal-r9" x="597.8" y="361.6" textLength="134.2" clip-path="url(#terminal-line-14)">coordinator</text><text class="terminal-r2" x="732" y="361.6" textLength="109.8" clip-path="url(#terminal-line-14)">&#160;·&#160;turn&#160;1</text><text class="terminal-r8" x="841.8" y="361.6" textLength="561.2" clip-path="url(#terminal-line-14)">&#160;─────────────────────────────────────────────</text><text class="terminal-r1" x="1464" y="361.6" textLength="12.2" clip-path="url(#terminal-line-14)">
</text><text class="terminal-r1" x="1464" y="386" textLength="12.2" clip-path="url(#terminal-line-15)">
</text><text class="terminal-r10" x="36.6" y="410.4" textLength="48.8" clip-path="url(#terminal-line-16)">&#160;&#160;┌&#160;</text><text class="terminal-r11" x="85.4" y="410.4" textLength="97.6" clip-path="url(#terminal-line-16)">thinking</text><text class="terminal-r1" x="1464" y="410.4" textLength="12.2" clip-path="url(#terminal-line-16)">
</text><text class="terminal-r10" x="36.6" y="434.8" textLength="48.8" clip-path="url(#terminal-line-17)">&#160;&#160;│&#160;</text><text class="terminal-r1" x="1464" y="434.8" textLength="12.2" clip-path="url(#terminal-line-17)">
</text><text class="terminal-r10" x="36.6" y="459.2" textLength="48.8" clip-path="url(#terminal-line-18)">&#160;&#160;│&#160;</text><text class="terminal-r12" x="85.4" y="459.2" textLength="524.6" clip-path="url(#terminal-line-18)">I&#x27;ll&#160;delegate&#160;research&#160;first,&#160;then&#160;writing.</text><text class="terminal-r1" x="1464" y="459.2" textLength="12.2" clip-path="url(#terminal-line-18)">
</text><text class="terminal-r10" x="36.6" y="483.6" textLength="36.6" clip-path="url(#terminal-line-19)">&#160;&#160;└</text><text class="terminal-r1" x="1464" y="483.6" textLength="12.2" clip-path="url(#terminal-line-19)">
</text><text class="terminal-r1" x="1464" y="508" textLength="12.2" clip-path="url(#terminal-line-20)">
</text><text class="terminal-r2" x="36.6" y="532.4" textLength="1366.4" clip-path="url(#terminal-line-21)">Delegating&#160;to&#160;the&#160;researcher…&#160;&#160;&#160;&#160;&#160;&#160;&#160;&#160;&#160;&#160;&#160;&#160;&#160;&#160;&#160;&#160;&#160;&#160;&#160;&#160;&#160;&#160;&#160;&#160;&#160;&#160;&#160;&#160;&#160;&#160;&#160;&#160;&#160;&#160;&#160;&#160;&#160;&#160;&#160;&#160;&#160;&#160;&#160;&#160;&#160;&#160;&#160;&#160;&#160;&#160;&#160;&#160;&#160;&#160;&#160;&#160;&#160;&#160;&#160;&#160;&#160;&#160;&#160;&#160;&#160;&#160;&#160;&#160;&#160;&#160;&#160;&#160;&#160;&#160;&#160;&#160;&#160;&#160;&#160;&#160;&#160;&#160;&#160;</text><text class="terminal-r1" x="1464" y="532.4" textLength="12.2" clip-path="url(#terminal-line-21)">
</text><text class="terminal-r1" x="1464" y="556.8" textLength="12.2" clip-path="url(#terminal-line-22)">
</text><text class="terminal-r13" x="36.6" y="581.2" textLength="24.4" clip-path="url(#terminal-line-23)">╭─</text><text class="terminal-r14" x="73.2" y="581.2" textLength="292.8" clip-path="url(#terminal-line-23)">coordinator&#160;→&#160;researcher</text><text class="terminal-r13" x="378.2" y="581.2" textLength="24.4" clip-path="url(#terminal-line-23)">─╮</text><text class="terminal-r1" x="1464" y="581.2" textLength="12.2" clip-path="url(#terminal-line-23)">
</text><text class="terminal-r13" x="36.6" y="605.6" textLength="12.2" clip-path="url(#terminal-line-24)">│</text><text class="terminal-r13" x="390.4" y="605.6" textLength="12.2" clip-path="url(#terminal-line-24)">│</text><text class="terminal-r1" x="1464" y="605.6" textLength="12.2" clip-path="url(#terminal-line-24)">
</text><text class="terminal-r13" x="36.6" y="630" textLength="12.2" clip-path="url(#terminal-line-25)">│</text><text class="terminal-r15" x="73.2" y="630" textLength="61" clip-path="url(#terminal-line-25)">topic</text><text class="terminal-r16" x="170.8" y="630" textLength="195.2" clip-path="url(#terminal-line-25)">internet&#160;history</text><text class="terminal-r13" x="390.4" y="630" textLength="12.2" clip-path="url(#terminal-line-25)">│</text><text class="terminal-r1" x="1464" y="630" textLength="12.2" clip-path="url(#terminal-line-25)">
</text><text class="terminal-r13" x="36.6" y="654.4" textLength="12.2" clip-path="url(#terminal-line-26)">│</text><text class="terminal-r13" x="390.4" y="654.4" textLength="12.2" clip-path="url(#terminal-line-26)">│</text><text class="terminal-r1" x="1464" y="654.4" textLength="12.2" clip-path="url(#terminal-line-26)">
</text><text class="terminal-r13" x="36.6" y="678.8" textLength="366" clip-path="url(#terminal-line-27)">╰────────────────────────────╯</text><text class="terminal-r1" x="1464" y="678.8" textLength="12.2" clip-path="url(#terminal-line-27)">
</text><text class="terminal-r17" x="36.6" y="703.2" textLength="927.2" clip-path="url(#terminal-line-28)">claude-sonnet-4-5&#160;·&#160;1,500&#160;in&#160;·&#160;900&#160;cached&#160;·&#160;220&#160;out&#160;·&#160;120&#160;thinking&#160;·&#160;$0.0041</text><text class="terminal-r1" x="1464" y="703.2" textLength="12.2" clip-path="url(#terminal-line-28)">
</text><text class="terminal-r1" x="1464" y="727.6" textLength="12.2" clip-path="url(#terminal-line-29)">
</text><text class="terminal-r18" x="805.2" y="752" textLength="24.4" clip-path="url(#terminal-line-30)">╭─</text><text class="terminal-r19" x="841.8" y="752" textLength="292.8" clip-path="url(#terminal-line-30)">coordinator&#160;←&#160;researcher</text><text class="terminal-r18" x="1146.8" y="752" textLength="231.8" clip-path="url(#terminal-line-30)">───────────────────</text><text class="terminal-r18" x="1378.6" y="752" textLength="24.4" clip-path="url(#terminal-line-30)">─╮</text><text class="terminal-r1" x="1464" y="752" textLength="12.2" clip-path="url(#terminal-line-30)">
</text><text class="terminal-r18" x="805.2" y="776.4" textLength="12.2" clip-path="url(#terminal-line-31)">│</text><text class="terminal-r18" x="1390.8" y="776.4" textLength="12.2" clip-path="url(#terminal-line-31)">│</text><text class="terminal-r1" x="1464" y="776.4" textLength="12.2" clip-path="url(#terminal-line-31)">
</text><text class="terminal-r18" x="805.2" y="800.8" textLength="12.2" clip-path="url(#terminal-line-32)">│</text><text class="terminal-r12" x="841.8" y="800.8" textLength="524.6" clip-path="url(#terminal-line-32)">4&#160;milestones:&#160;ARPANET,&#160;TCP/IP,&#160;WWW,&#160;mobile.</text><text class="terminal-r18" x="1390.8" y="800.8" textLength="12.2" clip-path="url(#terminal-line-32)">│</text><text class="terminal-r1" x="1464" y="800.8" textLength="12.2" clip-path="url(#terminal-line-32)">
</text><text class="terminal-r18" x="805.2" y="825.2" textLength="12.2" clip-path="url(#terminal-line-33)">│</text><text class="terminal-r18" x="1390.8" y="825.2" textLength="12.2" clip-path="url(#terminal-line-33)">│</text><text class="terminal-r1" x="1464" y="825.2" textLength="12.2" clip-path="url(#terminal-line-33)">
</text><text class="terminal-r18" x="805.2" y="849.6" textLength="597.8" clip-path="url(#terminal-line-34)">╰───────────────────────────────────────────────╯</text><text class="terminal-r1" x="1464" y="849.6" textLength="12.2" clip-path="url(#terminal-line-34)">
</text><text class="terminal-r1" x="1464" y="874" textLength="12.2" clip-path="url(#terminal-line-35)">
</text><text class="terminal-r20" x="36.6" y="898.4" textLength="585.6" clip-path="url(#terminal-line-36)">⧗&#160;index_sources&#160;launched&#160;in&#160;background&#160;(id:&#160;bg1)</text><text class="terminal-r1" x="1464" y="898.4" textLength="12.2" clip-path="url(#terminal-line-36)">
</text><text class="terminal-r21" x="12.2" y="922.8" textLength="158.6" clip-path="url(#terminal-line-37)">✓&#160;coordinator</text><text class="terminal-r22" x="195.2" y="922.8" textLength="170.8" clip-path="url(#terminal-line-37)">✓&#160;↳&#160;researcher</text><text class="terminal-r22" x="390.4" y="922.8" textLength="122" clip-path="url(#terminal-line-37)">✓&#160;↳&#160;writer</text><text class="terminal-r1" x="1464" y="922.8" textLength="12.2" clip-path="url(#terminal-line-37)">
</text><text class="terminal-r23" x="0" y="947.2" textLength="12.2" clip-path="url(#terminal-line-38)">╸</text><text class="terminal-r24" x="12.2" y="947.2" textLength="158.6" clip-path="url(#terminal-line-38)">━━━━━━━━━━━━━</text><text class="terminal-r23" x="170.8" y="947.2" textLength="1293.2" clip-path="url(#terminal-line-38)">╺━━━━━━━━━━━━━━━━━━━━━━━━━━━━━━━━━━━━━━━━━━━━━━━━━━━━━━━━━━━━━━━━━━━━━━━━━━━━━━━━━━━━━━━━━━━━━━━━━━━━━━━━━</text><text class="terminal-r1" x="1464" y="947.2" textLength="12.2" clip-path="url(#terminal-line-38)">
</text><text class="terminal-r25" x="0" y="971.6" textLength="36.6" clip-path="url(#terminal-line-39)">&#160;q&#160;</text><text class="terminal-r2" x="36.6" y="971.6" textLength="61" clip-path="url(#terminal-line-39)">Quit&#160;</text><text class="terminal-r25" x="97.6" y="971.6" textLength="36.6" clip-path="url(#terminal-line-39)">&#160;f&#160;</text><text class="terminal-r2" x="134.2" y="971.6" textLength="170.8" clip-path="url(#terminal-line-39)">Follow&#160;latest&#160;</text><text class="terminal-r26" x="1317.6" y="971.6" textLength="12.2" clip-path="url(#terminal-line-39)">▏</text><text class="terminal-r25" x="1329.8" y="971.6" textLength="24.4" clip-path="url(#terminal-line-39)">^p</text><text class="terminal-r2" x="1354.2" y="971.6" textLength="97.6" clip-path="url(#terminal-line-39)">&#160;palette</text>
    </g>
    </g>
</svg>
